<svg width="205" height="53" viewBox="0 0 205 53" fill="none" xmlns="http://www.w3.org/2000/svg">
<path d="M31.9287 43H27.0303V22.126L19.293 38.3242H15.3408L7.64062 22.2188V43H2.74219V15.168H8.97656L17.3262 32.9619L25.6572 15.168H31.9287V43ZM50.2793 43H45.3809V31.1064L34.7676 15.168H40.7236L47.8301 26.8574L54.9736 15.168H60.9111L50.2793 31.1436V43ZM92.1387 43H87.6855L81.5811 23.332L75.4766 43H71.0234L61.9688 15.168H67.1084L73.2314 34.9287L79.3545 15.168H83.8076L89.9121 34.873L96.0166 15.168H101.156L92.1387 43ZM116.705 43.5566C114.602 43.5566 112.66 43.1979 110.879 42.4805C109.11 41.763 107.57 40.7549 106.259 39.4561C104.948 38.1449 103.927 36.611 103.197 34.8545C102.48 33.0856 102.121 31.1621 102.121 29.084C102.121 26.9935 102.48 25.07 103.197 23.3135C103.927 21.557 104.948 20.0293 106.259 18.7305C107.57 17.4193 109.11 16.4049 110.879 15.6875C112.66 14.9701 114.608 14.6113 116.724 14.6113C118.826 14.6113 120.762 14.9701 122.531 15.6875C124.3 16.4049 125.84 17.4193 127.151 18.7305C128.463 20.0293 129.477 21.557 130.194 23.3135C130.912 25.07 131.271 26.9935 131.271 29.084C131.271 31.1621 130.912 33.0856 130.194 34.8545C129.477 36.611 128.463 38.1449 127.151 39.4561C125.84 40.7549 124.3 41.763 122.531 42.4805C120.762 43.1979 118.82 43.5566 116.705 43.5566ZM116.705 39.252C118.078 39.252 119.346 38.9984 120.509 38.4912C121.672 37.984 122.68 37.2728 123.533 36.3574C124.399 35.4297 125.067 34.3473 125.537 33.1104C126.02 31.8734 126.261 30.5312 126.261 29.084C126.261 27.6367 126.02 26.2946 125.537 25.0576C125.067 23.8206 124.399 22.7445 123.533 21.8291C122.68 20.9014 121.672 20.1839 120.509 19.6768C119.346 19.1696 118.078 18.916 116.705 18.916C115.344 18.916 114.076 19.1696 112.901 19.6768C111.739 20.1839 110.724 20.9014 109.858 21.8291C109.005 22.7445 108.337 23.8206 107.854 25.0576C107.372 26.2946 107.131 27.6367 107.131 29.084C107.131 30.5312 107.372 31.8734 107.854 33.1104C108.337 34.3473 109.005 35.4297 109.858 36.3574C110.724 37.2728 111.739 37.984 112.901 38.4912C114.076 38.9984 115.344 39.252 116.705 39.252ZM148.656 43.5566C146.553 43.5566 144.611 43.1979 142.83 42.4805C141.061 41.763 139.521 40.7549 138.21 39.4561C136.899 38.1449 135.878 36.611 135.148 34.8545C134.431 33.0856 134.072 31.1621 134.072 29.084C134.072 26.9935 134.431 25.07 135.148 23.3135C135.878 21.557 136.899 20.0293 138.21 18.7305C139.521 17.4193 141.061 16.4049 142.83 15.6875C144.611 14.9701 146.56 14.6113 148.675 14.6113C150.778 14.6113 152.714 14.9701 154.482 15.6875C156.251 16.4049 157.791 17.4193 159.103 18.7305C160.414 20.0293 161.428 21.557 162.146 23.3135C162.863 25.07 163.222 26.9935 163.222 29.084C163.222 31.1621 162.863 33.0856 162.146 34.8545C161.428 36.611 160.414 38.1449 159.103 39.4561C157.791 40.7549 156.251 41.763 154.482 42.4805C152.714 43.1979 150.771 43.5566 148.656 43.5566ZM148.656 39.252C150.029 39.252 151.297 38.9984 152.46 38.4912C153.623 37.984 154.631 37.2728 155.484 36.3574C156.35 35.4297 157.018 34.3473 157.488 33.1104C157.971 31.8734 158.212 30.5312 158.212 29.084C158.212 27.6367 157.971 26.2946 157.488 25.0576C157.018 23.8206 156.35 22.7445 155.484 21.8291C154.631 20.9014 153.623 20.1839 152.46 19.6768C151.297 19.1696 150.029 18.916 148.656 18.916C147.296 18.916 146.028 19.1696 144.853 19.6768C143.69 20.1839 142.675 20.9014 141.81 21.8291C140.956 22.7445 140.288 23.8206 139.806 25.0576C139.323 26.2946 139.082 27.6367 139.082 29.084C139.082 30.5312 139.323 31.8734 139.806 33.1104C140.288 34.3473 140.956 35.4297 141.81 36.3574C142.675 37.2728 143.69 37.984 144.853 38.4912C146.028 38.9984 147.296 39.252 148.656 39.252ZM167.1 43V15.168H175.857C179.234 15.168 182.154 15.7308 184.615 16.8564C187.077 17.9821 188.976 19.5902 190.312 21.6807C191.647 23.7588 192.315 26.2266 192.315 29.084C192.315 31.929 191.647 34.3968 190.312 36.4873C188.976 38.5778 187.077 40.1859 184.615 41.3115C182.154 42.4372 179.234 43 175.857 43H167.1ZM171.998 38.6953H176.043C178.43 38.6953 180.459 38.3242 182.129 37.582C183.811 36.8275 185.091 35.7327 185.97 34.2979C186.86 32.863 187.306 31.125 187.306 29.084C187.306 27.043 186.86 25.305 185.97 23.8701C185.091 22.4352 183.811 21.3467 182.129 20.6045C180.459 19.8499 178.43 19.4727 176.043 19.4727H171.998V38.6953Z" fill="white"/>
<path d="M198 0.5C201.625 0.5 204.5 3.22054 204.5 6.5C204.5 9.77946 201.625 12.5 198 12.5C194.375 12.5 191.5 9.77946 191.5 6.5C191.5 3.22054 194.375 0.5 198 0.5Z" stroke="white"/>
<path d="M195.15 9H194.744V4.366H193.134V4.002H196.76V4.366H195.15V9ZM199.674 9L197.875 4.429H197.854C197.863 4.513 197.868 4.60867 197.868 4.716C197.872 4.81867 197.875 4.92833 197.875 5.045C197.879 5.157 197.882 5.27367 197.882 5.395V9H197.504V4.002H198.113L199.835 8.384H199.863L201.606 4.002H202.201V9H201.802V5.353C201.802 5.25033 201.802 5.14533 201.802 5.038C201.806 4.93067 201.811 4.82567 201.816 4.723C201.82 4.62033 201.825 4.52467 201.83 4.436H201.809L200.003 9H199.674Z" fill="white"/>
</svg>
