<svg width="190" height="29" viewBox="0 0 190 29" fill="none" xmlns="http://www.w3.org/2000/svg">
<path d="M29.1865 28.3887H24.2881V7.51465L16.5508 23.7129H12.5986L4.89844 7.60742V28.3887H0V0.556641H6.23438L14.584 18.3506L22.915 0.556641H29.1865V28.3887ZM47.5371 28.3887H42.6387V16.4951L32.0254 0.556641H37.9814L45.0879 12.2461L52.2314 0.556641H58.1689L47.5371 16.5322V28.3887ZM89.3965 28.3887H84.9434L78.8389 8.7207L72.7344 28.3887H68.2812L59.2266 0.556641H64.3662L70.4893 20.3174L76.6123 0.556641H81.0654L87.1699 20.2617L93.2744 0.556641H98.4141L89.3965 28.3887ZM113.963 28.9453C111.86 28.9453 109.918 28.5866 108.137 27.8691C106.368 27.1517 104.828 26.1436 103.517 24.8447C102.205 23.5335 101.185 21.9997 100.455 20.2432C99.7376 18.4743 99.3789 16.5508 99.3789 14.4727C99.3789 12.3822 99.7376 10.4587 100.455 8.70215C101.185 6.94564 102.205 5.41797 103.517 4.11914C104.828 2.80794 106.368 1.79362 108.137 1.07617C109.918 0.358724 111.866 0 113.981 0C116.084 0 118.02 0.358724 119.789 1.07617C121.558 1.79362 123.098 2.80794 124.409 4.11914C125.72 5.41797 126.735 6.94564 127.452 8.70215C128.17 10.4587 128.528 12.3822 128.528 14.4727C128.528 16.5508 128.17 18.4743 127.452 20.2432C126.735 21.9997 125.72 23.5335 124.409 24.8447C123.098 26.1436 121.558 27.1517 119.789 27.8691C118.02 28.5866 116.078 28.9453 113.963 28.9453ZM113.963 24.6406C115.336 24.6406 116.604 24.387 117.767 23.8799C118.929 23.3727 119.938 22.6615 120.791 21.7461C121.657 20.8184 122.325 19.736 122.795 18.499C123.277 17.262 123.519 15.9199 123.519 14.4727C123.519 13.0254 123.277 11.6833 122.795 10.4463C122.325 9.20931 121.657 8.13314 120.791 7.21777C119.938 6.29004 118.929 5.57259 117.767 5.06543C116.604 4.55827 115.336 4.30469 113.963 4.30469C112.602 4.30469 111.334 4.55827 110.159 5.06543C108.996 5.57259 107.982 6.29004 107.116 7.21777C106.263 8.13314 105.595 9.20931 105.112 10.4463C104.63 11.6833 104.389 13.0254 104.389 14.4727C104.389 15.9199 104.63 17.262 105.112 18.499C105.595 19.736 106.263 20.8184 107.116 21.7461C107.982 22.6615 108.996 23.3727 110.159 23.8799C111.334 24.387 112.602 24.6406 113.963 24.6406ZM145.914 28.9453C143.811 28.9453 141.869 28.5866 140.088 27.8691C138.319 27.1517 136.779 26.1436 135.468 24.8447C134.157 23.5335 133.136 21.9997 132.406 20.2432C131.689 18.4743 131.33 16.5508 131.33 14.4727C131.33 12.3822 131.689 10.4587 132.406 8.70215C133.136 6.94564 134.157 5.41797 135.468 4.11914C136.779 2.80794 138.319 1.79362 140.088 1.07617C141.869 0.358724 143.817 0 145.933 0C148.035 0 149.971 0.358724 151.74 1.07617C153.509 1.79362 155.049 2.80794 156.36 4.11914C157.672 5.41797 158.686 6.94564 159.403 8.70215C160.121 10.4587 160.479 12.3822 160.479 14.4727C160.479 16.5508 160.121 18.4743 159.403 20.2432C158.686 21.9997 157.672 23.5335 156.36 24.8447C155.049 26.1436 153.509 27.1517 151.74 27.8691C149.971 28.5866 148.029 28.9453 145.914 28.9453ZM145.914 24.6406C147.287 24.6406 148.555 24.387 149.718 23.8799C150.881 23.3727 151.889 22.6615 152.742 21.7461C153.608 20.8184 154.276 19.736 154.746 18.499C155.229 17.262 155.47 15.9199 155.47 14.4727C155.47 13.0254 155.229 11.6833 154.746 10.4463C154.276 9.20931 153.608 8.13314 152.742 7.21777C151.889 6.29004 150.881 5.57259 149.718 5.06543C148.555 4.55827 147.287 4.30469 145.914 4.30469C144.553 4.30469 143.285 4.55827 142.11 5.06543C140.948 5.57259 139.933 6.29004 139.067 7.21777C138.214 8.13314 137.546 9.20931 137.063 10.4463C136.581 11.6833 136.34 13.0254 136.34 14.4727C136.34 15.9199 136.581 17.262 137.063 18.499C137.546 19.736 138.214 20.8184 139.067 21.7461C139.933 22.6615 140.948 23.3727 142.11 23.8799C143.285 24.387 144.553 24.6406 145.914 24.6406ZM164.357 28.3887V0.556641H173.115C176.492 0.556641 179.411 1.11947 181.873 2.24512C184.335 3.37077 186.233 4.97884 187.569 7.06934C188.905 9.14746 189.573 11.6152 189.573 14.4727C189.573 17.3177 188.905 19.7855 187.569 21.876C186.233 23.9665 184.335 25.5745 181.873 26.7002C179.411 27.8258 176.492 28.3887 173.115 28.3887H164.357ZM169.256 24.084H173.301C175.688 24.084 177.717 23.7129 179.387 22.9707C181.069 22.2161 182.349 21.1214 183.228 19.6865C184.118 18.2516 184.563 16.5137 184.563 14.4727C184.563 12.4316 184.118 10.6937 183.228 9.25879C182.349 7.82389 181.069 6.73535 179.387 5.99316C177.717 5.23861 175.688 4.86133 173.301 4.86133H169.256V24.084Z" fill="#4A2F11"/>
</svg>
